<?xml version="1.0" encoding="UTF-8" standalone="no"?>
<svg
   width="120mm"
   height="40mm"
   viewBox="0 0 340.15749 113.38582"
   version="1.1"
   id="svg22"
   sodipodi:docname="LiBRA.svg"
   inkscape:export-filename="/Users/bradyplanden/Documents/Git/LiBRA/LiBRA.png"
   inkscape:export-xdpi="198"
   inkscape:export-ydpi="198"
   inkscape:version="1.1-rc (52f87ab, 2021-05-02)"
   xmlns:inkscape="http://www.inkscape.org/namespaces/inkscape"
   xmlns:sodipodi="http://sodipodi.sourceforge.net/DTD/sodipodi-0.dtd"
   xmlns="http://www.w3.org/2000/svg"
   xmlns:svg="http://www.w3.org/2000/svg">
  <defs
     id="defs26" />
  <sodipodi:namedview
     id="namedview24"
     pagecolor="#ffffff"
     bordercolor="#666666"
     borderopacity="1.0"
     objecttolerance="10.0"
     gridtolerance="10.0"
     guidetolerance="10.0"
     inkscape:pageshadow="2"
     inkscape:pageopacity="0.0"
     inkscape:pagecheckerboard="0"
     inkscape:document-units="pt"
     showgrid="false"
     units="mm"
     inkscape:zoom="1.4468942"
     inkscape:cx="51.835165"
     inkscape:cy="58.400953"
     inkscape:window-width="1408"
     inkscape:window-height="847"
     inkscape:window-x="32"
     inkscape:window-y="25"
     inkscape:window-maximized="0"
     inkscape:current-layer="svg22" />
  <g
     id="surface91"
     transform="matrix(0.26344346,0,0,0.22365127,6.9528214,20.091301)">
    <path
       style="fill:#ca3a33;fill-opacity:1;fill-rule:nonzero;stroke:none"
       d="m 150.89844,225 c 0,41.42187 -33.57813,75 -75.000002,75 -41.421876,0 -75,-33.57813 -75,-75 0,-41.42188 33.578124,-75 75,-75 41.421872,0 75.000002,33.57812 75.000002,75"
       id="path15" />
    <path
       style="fill:#389723;fill-opacity:1;fill-rule:nonzero;stroke:none"
       d="m 237.5,75 c 0,41.42188 -33.57813,75 -75,75 -41.42187,0 -75,-33.57812 -75,-75 0,-41.421875 33.57813,-75 75,-75 41.42187,0 75,33.578125 75,75"
       id="path17" />
    <path
       style="fill:#9457b0;fill-opacity:1;fill-rule:nonzero;stroke:none"
       d="m 324.10156,225 c 0,41.42187 -33.57812,75 -75,75 -41.42187,0 -75,-33.57813 -75,-75 0,-41.42188 33.57813,-75 75,-75 41.42188,0 75,33.57812 75,75"
       id="path19" />
  </g>
  <text
     xml:space="preserve"
     style="font-style:normal;font-variant:normal;font-weight:normal;font-stretch:normal;font-size:84.0721px;line-height:1.25;font-family:Nexa;-inkscape-font-specification:'Nexa, Normal';font-variant-ligatures:normal;font-variant-caps:normal;font-variant-numeric:normal;font-variant-east-asian:normal;fill:#000000;fill-opacity:1;stroke:none;stroke-width:2.10178"
     x="94.684067"
     y="85.87722"
     id="text1108"
     inkscape:export-xdpi="96"
     inkscape:export-ydpi="96"><tspan
       sodipodi:role="line"
       id="tspan1106"
       style="font-style:normal;font-variant:normal;font-weight:normal;font-stretch:normal;font-size:84.0721px;font-family:Nexa;-inkscape-font-specification:'Nexa, Normal';font-variant-ligatures:normal;font-variant-caps:normal;font-variant-numeric:normal;font-variant-east-asian:normal;stroke-width:2.10178"
       x="94.684067"
       y="85.87722">LiBRA</tspan></text>
</svg>
